<svg xmlns="http://www.w3.org/2000/svg" viewBox="0 0 260 480" width="260" height="480">
  <defs>
    <linearGradient id="skin" x1="0" y1="0" x2="0" y2="1">
      <stop offset="0" stop-color="#fde8d8"/>
      <stop offset="1" stop-color="#f0c0a0"/>
    </linearGradient>
    <linearGradient id="outfit" x1="0" y1="0" x2="0" y2="1">
      <stop offset="0" stop-color="#f472b6"/>
      <stop offset="1" stop-color="#db2777"/>
    </linearGradient>
    <radialGradient id="glow" cx="0.5" cy="0.3" r="0.6">
      <stop offset="0" stop-color="#f472b6" stop-opacity="0.3"/>
      <stop offset="1" stop-color="#f472b6" stop-opacity="0"/>
    </radialGradient>
  </defs>
  <ellipse cx="130" cy="200" rx="120" ry="200" fill="url(#glow)"/>
  <ellipse cx="130" cy="370" rx="72" ry="104" fill="url(#outfit)"/>
  <ellipse cx="66" cy="315" rx="22" ry="72" fill="url(#outfit)" transform="rotate(-12 66 315)"/>
  <ellipse cx="194" cy="315" rx="22" ry="72" fill="url(#outfit)" transform="rotate(12 194 315)"/>
  <ellipse cx="50" cy="375" rx="15" ry="17" fill="url(#skin)"/>
  <ellipse cx="210" cy="375" rx="15" ry="17" fill="url(#skin)"/>
  <rect x="113" y="188" width="34" height="42" rx="16" fill="url(#skin)"/>
  <ellipse cx="130" cy="157" rx="56" ry="66" fill="url(#skin)"/>
  <!-- Long wavy hair -->
  <ellipse cx="130" cy="104" rx="62" ry="36" fill="#8B2252"/>
  <ellipse cx="70" cy="160" rx="20" ry="70" fill="#8B2252"/>
  <ellipse cx="190" cy="160" rx="20" ry="70" fill="#8B2252"/>
  <path d="M70,220 Q60,260 72,300" stroke="#8B2252" stroke-width="24" fill="none" stroke-linecap="round"/>
  <path d="M190,220 Q200,260 188,300" stroke="#8B2252" stroke-width="24" fill="none" stroke-linecap="round"/>
  <!-- Makeup: eyeshadow -->
  <ellipse cx="108" cy="144" rx="16" ry="10" fill="#db2777" fill-opacity="0.4"/>
  <ellipse cx="152" cy="144" rx="16" ry="10" fill="#db2777" fill-opacity="0.4"/>
  <!-- Eyes -->
  <ellipse cx="108" cy="150" rx="10" ry="9" fill="white"/>
  <ellipse cx="152" cy="150" rx="10" ry="9" fill="white"/>
  <ellipse cx="109" cy="151" rx="7" ry="7" fill="#1a0a2e"/>
  <ellipse cx="153" cy="151" rx="7" ry="7" fill="#1a0a2e"/>
  <circle cx="111" cy="149" r="2" fill="white"/>
  <circle cx="155" cy="149" r="2" fill="white"/>
  <!-- Eyelashes -->
  <path d="M98,142 Q108,136 118,142" stroke="#1a0a2e" stroke-width="3" fill="none"/>
  <path d="M142,142 Q152,136 162,142" stroke="#1a0a2e" stroke-width="3" fill="none"/>
  <!-- Eyebrows arched -->
  <path d="M97,134 Q108,127 120,132" stroke="#6b0f3a" stroke-width="3" fill="none" stroke-linecap="round"/>
  <path d="M140,132 Q152,127 163,134" stroke="#6b0f3a" stroke-width="3" fill="none" stroke-linecap="round"/>
  <!-- Cheeks blush -->
  <ellipse cx="94" cy="172" rx="15" ry="10" fill="#f472b6" fill-opacity="0.4"/>
  <ellipse cx="166" cy="172" rx="15" ry="10" fill="#f472b6" fill-opacity="0.4"/>
  <!-- Lips -->
  <path d="M112,190 Q130,196 148,190" fill="#e11d48"/>
  <path d="M112,190 Q130,204 148,190 Q140,194 130,194 Q120,194 112,190 Z" fill="#be123c"/>
  <!-- Earrings -->
  <circle cx="74" cy="168" r="4" fill="#ffd700"/>
  <ellipse cx="74" cy="180" rx="3" ry="8" fill="#ffd700"/>
  <circle cx="186" cy="168" r="4" fill="#ffd700"/>
  <ellipse cx="186" cy="180" rx="3" ry="8" fill="#ffd700"/>
</svg>
